<mxfile host="app.diagrams.net" modified="2023-10-04T23:58:27.329Z" agent="Mozilla/5.0 (Windows NT 10.0; Win64; x64) AppleWebKit/537.36 (KHTML, like Gecko) Chrome/117.0.0.0 Safari/537.36" version="22.0.2" etag="cpJOmdT1ry7pHCwsw2-D" type="github">
  <diagram name="Page-1" id="GVeGMIglTPYKGDn2vtSQ">
    <mxGraphModel>
      <root>
        <mxCell id="0" />
        <mxCell id="1" parent="0" />
      </root>
    </mxGraphModel>
  </diagram>
</mxfile>
